<?xml version="1.0" encoding="UTF-8" standalone="no"?>
<svg
   viewBox="0 0 128 128"
   version="1.1"
   id="svg9"
   sodipodi:docname="icon.svg"
   inkscape:version="1.4 (e7c3feb1, 2024-10-09)"
   inkscape:export-filename="icon.png"
   inkscape:export-xdpi="96"
   inkscape:export-ydpi="96"
   xmlns:inkscape="http://www.inkscape.org/namespaces/inkscape"
   xmlns:sodipodi="http://sodipodi.sourceforge.net/DTD/sodipodi-0.dtd"
   xmlns:xlink="http://www.w3.org/1999/xlink"
   xmlns="http://www.w3.org/2000/svg"
   xmlns:svg="http://www.w3.org/2000/svg">
  <sodipodi:namedview
     id="namedview9"
     pagecolor="#ffffff"
     bordercolor="#000000"
     borderopacity="0.25"
     inkscape:showpageshadow="2"
     inkscape:pageopacity="0.0"
     inkscape:pagecheckerboard="0"
     inkscape:deskcolor="#d1d1d1"
     inkscape:zoom="1.5687003"
     inkscape:cx="-95.939293"
     inkscape:cy="226.62072"
     inkscape:window-width="1792"
     inkscape:window-height="982"
     inkscape:window-x="0"
     inkscape:window-y="25"
     inkscape:window-maximized="1"
     inkscape:current-layer="svg9"
     showgrid="true">
    <inkscape:grid
       id="grid15"
       units="px"
       originx="0"
       originy="0"
       spacingx="1"
       spacingy="1"
       empcolor="#0099e5"
       empopacity="0.30196078"
       color="#0099e5"
       opacity="0.14901961"
       empspacing="5"
       enabled="true"
       visible="true" />
  </sodipodi:namedview>
  <!-- Background hexagon with gradient -->
  <defs
     id="defs6">
    <linearGradient
       id="swatch13"
       inkscape:swatch="solid">
      <stop
         style="stop-color:#000000;stop-opacity:1;"
         offset="0"
         id="stop13" />
    </linearGradient>
    <linearGradient
       id="swatch12"
       inkscape:swatch="solid">
      <stop
         style="stop-color:#000000;stop-opacity:1;"
         offset="0"
         id="stop12" />
    </linearGradient>
    <linearGradient
       id="bgGradient"
       x1="0%"
       y1="0%"
       x2="100%"
       y2="100%">
      <stop
         offset="0%"
         style="stop-color:#1e293b;stop-opacity:1"
         id="stop1" />
      <stop
         offset="100%"
         style="stop-color:#0f172a;stop-opacity:1"
         id="stop2" />
    </linearGradient>
    <linearGradient
       id="logoGradient"
       x1="0"
       y1="-0.0024208677"
       x2="43.207647"
       y2="43.205227"
       gradientTransform="scale(0.9683471,1.0326876)"
       gradientUnits="userSpaceOnUse">
      <stop
         offset="0%"
         style="stop-color:#ffffff;stop-opacity:1"
         id="stop3" />
      <stop
         offset="100%"
         style="stop-color:#e2e8f0;stop-opacity:1"
         id="stop4" />
    </linearGradient>
    <linearGradient
       id="accentGradient"
       x1="0%"
       y1="0%"
       x2="100%"
       y2="100%">
      <stop
         offset="0"
         style="stop-color:#cf0f14;stop-opacity:1;"
         id="stop5" />
      <stop
         offset="100%"
         style="stop-color:#1d4ed8;stop-opacity:1"
         id="stop6" />
    </linearGradient>
    <linearGradient
       inkscape:collect="always"
       xlink:href="#swatch12"
       id="linearGradient13"
       x1="-20.915001"
       y1="-0.0024999999"
       x2="20.924999"
       y2="-0.0024999999"
       gradientUnits="userSpaceOnUse" />
  </defs>
  <!-- Rounded square background -->
  <!-- Forward slash in top left -->
  <!-- Your actual SVG logo - centered and scaled -->
  <g
     transform="matrix(1.7649099,0,0,1.7649099,66.051998,48.302261)"
     id="g8"
     style="opacity:1;fill:#a3d16e;fill-opacity:0.62;stroke:#a3d16e;stroke-width:0.999676;stroke-dasharray:none;stroke-opacity:0.999999">
    <g
       transform="translate(-20.915,-22.31)"
       id="g7"
       style="fill:#a3d16e;fill-opacity:0.62;stroke:#a3d16e;stroke-width:0.999676;stroke-dasharray:none;stroke-opacity:0.999999">
      <path
         d="m 41.83,13.83 c 0,-1.77 -0.96,-3.4 -2.5,-4.26 L 23.3,0.62 c -1.48,-0.83 -3.28,-0.83 -4.76,0 L 2.5,9.57 C 0.96,10.43 0,12.06 0,13.83 v 17.08 c 0,1.78 0.97,3.42 2.53,4.28 l 16.04,8.82 c 1.46,0.81 3.24,0.81 4.7,0 l 16.04,-8.82 c 1.56,-0.86 2.53,-2.5 2.53,-4.28 V 13.83 Z m -29.8,16.95 c 0,0.4 -0.43,0.65 -0.78,0.46 L 8.57,29.76 C 8.01,29.45 7.67,28.87 7.67,28.23 v -8.07 c 0,-0.4 0.43,-0.65 0.78,-0.46 l 2.95,1.63 c 0.39,0.21 0.63,0.62 0.63,1.07 z m 22.13,-2.59 c 0,0.63 -0.34,1.22 -0.9,1.53 L 30.58,31.2 C 30.23,31.39 29.8,31.14 29.8,30.74 V 20.42 c 0,-0.4 -0.43,-0.65 -0.78,-0.46 l -4.95,2.73 c -0.56,0.31 -0.9,0.89 -0.9,1.53 v 10.55 c 0,0.32 -0.17,0.61 -0.45,0.76 l -1.01,0.56 c -0.52,0.29 -1.16,0.29 -1.69,0 L 19.08,35.57 C 18.8,35.42 18.63,35.12 18.63,34.81 V 24.15 c 0,-0.63 -0.34,-1.22 -0.9,-1.53 L 7.92,17.2 C 7.75,17.11 7.65,16.93 7.65,16.74 v -0.42 c 0,-0.63 0.34,-1.22 0.9,-1.53 l 1.4,-0.77 c 0.52,-0.29 1.16,-0.29 1.69,0 l 8.48,4.69 c 0.52,0.29 1.16,0.29 1.69,0 l 3.81,-2.11 c 0.36,-0.2 0.36,-0.72 0,-0.92 l -8.51,-4.7 c -0.36,-0.2 -0.36,-0.72 0,-0.92 l 2.9,-1.6 c 0.52,-0.29 1.16,-0.29 1.69,0 l 11.55,6.38 c 0.56,0.31 0.9,0.89 0.9,1.53 v 11.81 z"
         fill="url(#logoGradient)"
         stroke-width="0"
         id="path6"
         style="fill:#a3d16e;fill-opacity:0.62;stroke:#a3d16e;stroke-width:0.999676;stroke-dasharray:none;stroke-opacity:0.999999" />
    </g>
  </g>
  <g
     transform="matrix(7.126678,0,0,7.126678,56.730303,145.75626)"
     id="g9"
     style="fill:url(#linearGradient13);stroke:#000000;stroke-width:0.999858;stroke-dasharray:none;stroke-opacity:1">
    <text
       x="1.1456758"
       y="-7.2806726"
       font-family="monospace"
       font-size="24px"
       font-weight="bold"
       fill="url(#accentGradient)"
       text-anchor="middle"
       dominant-baseline="central"
       id="text8-6"
       style="font-style:normal;font-variant:normal;font-weight:bold;font-stretch:normal;font-size:11.9738px;font-family:'JetBrains Mono';-inkscape-font-specification:'JetBrains Mono, Bold';font-variant-ligatures:normal;font-variant-caps:normal;font-variant-numeric:normal;font-variant-east-asian:normal;dominant-baseline:central;text-anchor:middle;display:inline;opacity:1;fill:#cf0f14;fill-opacity:1;stroke:#cf0f14;stroke-width:0.982521;stroke-dasharray:none;stroke-opacity:1"
       transform="scale(1.025891,0.97476243)"><tspan
         sodipodi:role="line"
         id="tspan16"
         x="1.1456761"
         y="-7.2806726"
         style="font-style:normal;font-variant:normal;font-weight:bold;font-stretch:normal;font-size:10.4771px;font-family:'JetBrains Mono';-inkscape-font-specification:'JetBrains Mono, Bold';font-variant-ligatures:normal;font-variant-caps:normal;font-variant-numeric:normal;font-variant-east-asian:normal;fill:#cf0f14;fill-opacity:1;stroke:#cf0f14;stroke-opacity:1">...</tspan></text>
  </g>
  <!-- Forward slash in bottom right -->
  <!-- Subtle highlight -->
</svg>
